<svg xmlns="http://www.w3.org/2000/svg" width="11.185" height="11.186" viewBox="0 0 11.185 11.186"><defs><style>.a{fill:#fff;}</style></defs><path class="a" d="M8.317,2.475a2.114,2.114,0,0,0-.075-.285C7.645.574,7.007,0,6.641,0c-.284,0-.493.252-.677.473C5.843.619,5.693.8,5.592.8S5.341.619,5.221.474C5.037.252,4.827,0,4.544,0,4.134,0,3.5.9,2.982,2.184a2.1,2.1,0,0,0-.082.283C2.018,2.615,0,3.054,0,4.019c0,.678,1.085,1.3,2.653,1.66.014.175.028.331.04.468C1.741,6.664.363,7.6.3,7.639l-.3.2.343.113L.807,8.1c.18.058.384.121.556.175a3.81,3.81,0,0,1,.606.233l-.907.627,1.748,2.05H4.62l-.49-2.87c.131.081.262.154.391.218l.443,2.592.01.059H6.209l.01-.06.453-2.576a4.188,4.188,0,0,0,.391-.205l-.5,2.842H8.378l1.748-2.05-.907-.627a3.787,3.787,0,0,1,.606-.233c.175-.053.376-.117.556-.175l.462-.148.343-.114-.3-.2c-.065-.044-1.459-.975-2.413-1.492.011-.137.024-.291.038-.463,1.58-.357,2.675-.984,2.675-1.663C11.185,3.064,9.212,2.621,8.317,2.475ZM7.994,7.131A3.833,3.833,0,0,1,5.587,8.48,3.972,3.972,0,0,1,3.18,7.052l-.005-.006a5.8,5.8,0,0,1-.16-1.241h.28a13.893,13.893,0,0,0,2.3.188A13.886,13.886,0,0,0,7.9,5.8h.253A10.376,10.376,0,0,1,7.994,7.131Zm-2.4-2.255c-1.445,0-2.907-.332-2.907-.971V3.882l.134-1.007.35.023c0,.2.859.6,2.434.6S8.039,3.1,8.039,2.9l.35-.019L8.5,3.9C8.5,4.544,7.038,4.876,5.592,4.876Z"/></svg>