<svg xmlns="http://www.w3.org/2000/svg" width="33" height="33.005" viewBox="0 0 33 33.005"><defs><style>.a{fill:#a700ff;}</style></defs><path class="a" d="M24.539,7.3a6.239,6.239,0,0,0-.222-.84C22.556,1.694,20.674,0,19.594,0c-.838,0-1.454.743-2,1.395-.356.431-.8.964-1.1.964s-.74-.534-1.1-.962c-.544-.655-1.163-1.4-2-1.4C12.2,0,10.313,2.653,8.8,6.445a6.187,6.187,0,0,0-.242.835C5.953,7.716,0,9.011,0,11.859c0,2,3.2,3.841,7.827,4.9.041.516.082.977.119,1.382-2.808,1.521-6.876,4.269-7.064,4.4L0,23.128l1.011.333,1.372.441c.531.17,1.132.358,1.64.516a11.24,11.24,0,0,1,1.787.688L3.132,26.957l5.156,6.048h5.342l-1.446-8.467c.387.24.773.454,1.155.642l1.307,7.647.031.173H18.32l.031-.178,1.335-7.6a12.357,12.357,0,0,0,1.152-.606L19.367,33h5.352l5.156-6.048L27.2,25.1a11.174,11.174,0,0,1,1.787-.688c.516-.157,1.109-.345,1.64-.516l1.364-.436L33,23.126l-.882-.59c-.191-.129-4.305-2.877-7.121-4.4.034-.4.072-.859.111-1.366C29.77,15.711,33,13.863,33,11.859,33,9.041,27.181,7.734,24.539,7.3ZM23.587,21.04c-1.931,2.233-5.053,3.981-7.1,3.981-1.939,0-5.058-1.851-7.1-4.213l-.015-.018a17.111,17.111,0,0,1-.472-3.661H9.72a40.992,40.992,0,0,0,6.78.554,40.969,40.969,0,0,0,6.8-.559h.748A30.616,30.616,0,0,1,23.587,21.04ZM16.5,14.386c-4.264,0-8.577-.98-8.577-2.864v-.067l.394-2.97,1.031.067c0,.6,2.534,1.756,7.183,1.756s7.188-1.16,7.188-1.756l1.031-.057.338,3.027C25.077,13.406,20.764,14.386,16.5,14.386Z"/></svg>