<svg xmlns="http://www.w3.org/2000/svg" width="70.506" height="70.517" viewBox="0 0 70.506 70.517"><defs><style>.a{fill:#fff;}</style></defs><path class="a" d="M52.428,15.6a13.329,13.329,0,0,0-.474-1.8C48.192,3.619,44.171,0,41.863,0c-1.79,0-3.107,1.586-4.269,2.98-.76.92-1.708,2.06-2.341,2.06S33.672,3.9,32.912,2.985C31.75,1.586,30.428,0,28.643,0,26.06,0,22.033,5.668,18.8,13.771a13.22,13.22,0,0,0-.518,1.785C12.719,16.486,0,19.251,0,25.338,0,29.612,6.841,33.545,16.723,35.8c.088,1.1.176,2.088.253,2.952-6,3.25-14.691,9.122-15.093,9.4L0,49.415l2.159.711,2.93.942c1.135.364,2.418.766,3.5,1.1a24.015,24.015,0,0,1,3.817,1.471L6.693,57.594,17.709,70.517H29.122l-3.09-18.089c.826.512,1.652.969,2.468,1.372l2.793,16.337.066.369h7.783l.066-.38,2.853-16.238a26.4,26.4,0,0,0,2.462-1.294L41.378,70.506H52.813L63.83,57.583l-5.718-3.955a23.873,23.873,0,0,1,3.817-1.471c1.1-.336,2.369-.738,3.5-1.1l2.914-.931,2.159-.716-1.884-1.261c-.408-.275-9.2-6.147-15.214-9.408.072-.865.154-1.834.237-2.919,9.959-2.253,16.861-6.2,16.861-10.482C70.506,19.317,58.073,16.525,52.428,15.6ZM50.395,44.953c-4.126,4.77-10.8,8.5-15.175,8.5-4.142,0-10.807-3.955-15.175-9l-.033-.039c-.187-.3-.512-1.928-1.008-7.822h1.763a87.581,87.581,0,0,0,14.487,1.184,87.532,87.532,0,0,0,14.52-1.2h1.6C51.15,39.329,50.72,44.33,50.395,44.953ZM35.253,30.736c-9.111,0-18.326-2.093-18.326-6.12v-.143l.843-6.346,2.2.143c0,1.272,5.415,3.751,15.346,3.751s15.357-2.479,15.357-3.751l2.2-.121.722,6.467C53.579,28.643,44.363,30.736,35.253,30.736Z"/></svg>