<svg xmlns="http://www.w3.org/2000/svg" width="13.7" height="13.883" viewBox="0 0 13.7 13.883"><defs><style>.a{fill:#fff;}</style></defs><path class="a" d="M12.675,14.565a.426.426,0,0,1,.122.305v.855a.485.485,0,0,1-.122.305.426.426,0,0,1-.305.122h-.855a.427.427,0,0,1-.428-.428V14.87a.427.427,0,0,1,.428-.428h.855A.362.362,0,0,1,12.675,14.565Zm2.657-.137h-.855a.427.427,0,0,0-.428.428v.855a.427.427,0,0,0,.428.428h.855a.485.485,0,0,0,.305-.122.426.426,0,0,0,.122-.305v-.855a.485.485,0,0,0-.122-.305A.426.426,0,0,0,15.333,14.427Zm-5.926,0H8.552a.427.427,0,0,0-.428.428v.855a.427.427,0,0,0,.428.428h.855a.485.485,0,0,0,.305-.122.426.426,0,0,0,.122-.305v-.855a.418.418,0,0,0-.428-.428Zm5.926-2.963h-.855a.427.427,0,0,0-.428.428v.855h0a.427.427,0,0,0,.428.428h.855a.485.485,0,0,0,.305-.122.426.426,0,0,0,.122-.305v-.855a.485.485,0,0,0-.122-.305A.426.426,0,0,0,15.333,11.464Zm-2.963,0h-.855a.427.427,0,0,0-.428.428v.855h0a.427.427,0,0,0,.428.428h.855a.485.485,0,0,0,.305-.122.426.426,0,0,0,.122-.305v-.855a.418.418,0,0,0-.428-.428Zm-2.963,0H8.552a.427.427,0,0,0-.428.428v.855h0a.427.427,0,0,0,.428.428h.855a.485.485,0,0,0,.305-.122.426.426,0,0,0,.122-.305v-.855a.418.418,0,0,0-.428-.428ZM18.8,7.081V17.406a.984.984,0,0,1-.977.977H6.077a.984.984,0,0,1-.977-.977V7.081A.984.984,0,0,1,6.077,6.1H8.2V5.477a.977.977,0,0,1,1.955,0V6.1h3.574V5.477a.977.977,0,0,1,1.955,0V6.1h2.123A.988.988,0,0,1,18.8,7.081Zm-.977,10.324V10.014H6.077v7.392Z" transform="translate(-5.1 -4.5)"/></svg>