<svg xmlns="http://www.w3.org/2000/svg" width="19.269" height="19.269" viewBox="0 0 19.269 19.269"><defs><style>.a{fill:#f9d300;}</style></defs><g transform="translate(0 0)"><path class="a" d="M19.246,7.3a.61.61,0,0,0-.456-.4l-5.8-1.13L10.176.32a.6.6,0,0,0-1.071,0L6.287,5.774.491,6.9A.6.6,0,0,0,.159,7.9l4.073,4.512-.771,6.173a.6.6,0,0,0,.52.676.623.623,0,0,0,.347-.06l5.313-2.667,5.313,2.663a.589.589,0,0,0,.27.064.6.6,0,0,0,.6-.676l-.771-6.173L19.118,7.9A.608.608,0,0,0,19.246,7.3Z" transform="translate(-0.006 0.007)"/></g></svg>