<svg xmlns="http://www.w3.org/2000/svg" width="70.939" height="70.939" viewBox="0 0 70.939 70.939"><defs><style>.a{fill:#fff;}</style></defs><g transform="translate(0 0)"><path class="a" d="M70.839,26.908a2.246,2.246,0,0,0-1.679-1.474L47.82,21.274,37.446,1.2a2.216,2.216,0,0,0-3.942,0L23.13,21.274,1.791,25.435A2.222,2.222,0,0,0,.569,29.091L15.563,45.7,12.725,68.427a2.207,2.207,0,0,0,1.916,2.49,2.3,2.3,0,0,0,1.277-.221l19.558-9.818,19.558,9.8a2.169,2.169,0,0,0,.993.236,2.215,2.215,0,0,0,2.2-2.49L55.388,45.7,70.366,29.091A2.237,2.237,0,0,0,70.839,26.908Z" transform="translate(-0.006 0.007)"/></g></svg>