<svg xmlns="http://www.w3.org/2000/svg" width="24" height="24" viewBox="0 0 24 24"><defs><style>.a{opacity:0.455;}.b{fill:#636363;}</style></defs><g class="a"><g transform="translate(0 0)"><path class="b" d="M23.97,9.1a.76.76,0,0,0-.568-.5l-7.22-1.408L12.673.4a.75.75,0,0,0-1.334,0L7.829,7.193.61,8.6A.752.752,0,0,0,.2,9.837l5.073,5.62-.96,7.688a.747.747,0,0,0,.648.842.776.776,0,0,0,.432-.075l6.617-3.322,6.617,3.316a.734.734,0,0,0,.336.08.749.749,0,0,0,.744-.842l-.96-7.688,5.067-5.62A.757.757,0,0,0,23.97,9.1Z" transform="translate(-0.006 0.007)"/></g></g></svg>