<svg xmlns="http://www.w3.org/2000/svg" width="33" height="33" viewBox="0 0 33 33"><defs><style>.a{fill:#fff;}</style></defs><path class="a" d="M24.067,0H8.933A8.943,8.943,0,0,0,0,8.933V24.067A8.943,8.943,0,0,0,8.933,33H24.067A8.943,8.943,0,0,0,33,24.067V8.933A8.943,8.943,0,0,0,24.067,0ZM16.5,25.523A9.023,9.023,0,1,1,25.523,16.5,9.033,9.033,0,0,1,16.5,25.523ZM25.739,9.6a2.666,2.666,0,1,1,2.666-2.666A2.669,2.669,0,0,1,25.739,9.6Zm0,0"/><path class="a" d="M151.585,146.02a5.565,5.565,0,1,0,5.565,5.565A5.572,5.572,0,0,0,151.585,146.02Zm0,0" transform="translate(-135.085 -135.085)"/></svg>