<svg xmlns="http://www.w3.org/2000/svg" width="24.798" height="33.803" viewBox="0 0 24.798 33.803"><defs><style>.a,.b{fill:#03a7ff;}.a{fill-rule:evenodd;}</style></defs><g transform="translate(0.01)"><path class="a" d="M21.693,10a7.4,7.4,0,1,1-7.379,7.4A7.388,7.388,0,0,1,21.693,10ZM16.574,26.77H27.035a6.6,6.6,0,0,1,6.573,6.588v9.265H9.99V33.369a6.61,6.61,0,0,1,6.583-6.6Z" transform="translate(-9.41 -9.41)"/><path class="b" d="M12.282,0A7.932,7.932,0,1,1,6.673,2.323,7.906,7.906,0,0,1,12.282,0ZM17.2,3.014a6.954,6.954,0,1,0,2.037,4.917A6.934,6.934,0,0,0,17.2,3.014ZM7.119,16.874H17.67a7.141,7.141,0,0,1,7.118,7.118V33.8H-.01V24a7.148,7.148,0,0,1,7.128-7.128Zm10.551.977H7.119A6.17,6.17,0,0,0,.968,24v8.824H23.812V23.992a6.16,6.16,0,0,0-6.141-6.141Z"/></g></svg>