<svg xmlns="http://www.w3.org/2000/svg" width="67.805" height="70.939" viewBox="0 0 67.805 70.939"><defs><style>.a{fill:#fff;}</style></defs><path class="a" d="M9.986,31.773l8.393,3.48a48.473,48.473,0,0,0-2.257,7.358L15.8,44.058,27.834,56.1l1.447-.311a48.474,48.474,0,0,0,7.358-2.257l3.48,8.393a.543.543,0,0,0,.89.174l5.26-5.26A8.682,8.682,0,0,0,48.8,50.258l-.188-3.379c9.738-7.192,19.592-19.8,22.277-41.811A3.617,3.617,0,0,0,66.831.988c-22,2.706-34.619,12.567-41.811,22.277l-3.372-.174a8.682,8.682,0,0,0-6.577,2.5l-5.26,5.26a.543.543,0,0,0,.174.926ZM43.73,18.952a6.511,6.511,0,1,1-1.915,4.612,6.511,6.511,0,0,1,1.915-4.612ZM8.416,57.059a8.544,8.544,0,0,0-4.341-.347A.793.793,0,0,1,3.192,55.6c1.541-3.314,5.629-9.977,13.03-4.594a.369.369,0,0,1,0,.55,8.038,8.038,0,0,0-3.06,6.584.586.586,0,0,0,.564.564,8.031,8.031,0,0,0,6.584-3,.369.369,0,0,1,.572,0c1.027,1.223,3.856,5.216.724,9.073A8.139,8.139,0,0,1,16.15,67.68C13.111,68.006,7.5,69,5.2,71.616a.789.789,0,0,1-1.36-.289C3.033,68.563,1.774,62.384,8.416,57.059Z" transform="translate(-3.119 -0.957)"/></svg>