<svg xmlns="http://www.w3.org/2000/svg" width="33" height="33" viewBox="0 0 33 33"><defs><style>.a{opacity:0.455;}.b{fill:#fff;}</style></defs><g class="a"><g transform="translate(0 0)"><path class="b" d="M32.957,12.514a1.045,1.045,0,0,0-.781-.685L22.249,9.893,17.423.553a1.031,1.031,0,0,0-1.834,0l-4.826,9.34L.836,11.828a1.034,1.034,0,0,0-.568,1.7l6.975,7.727L5.923,31.828a1.026,1.026,0,0,0,.891,1.158,1.068,1.068,0,0,0,.594-.1l9.1-4.567,9.1,4.56a1.009,1.009,0,0,0,.462.11,1.03,1.03,0,0,0,1.023-1.158l-1.32-10.572,6.968-7.727A1.041,1.041,0,0,0,32.957,12.514Z" transform="translate(-0.006 0.007)"/></g></g></svg>