<svg xmlns="http://www.w3.org/2000/svg" width="20.823" height="20.823" viewBox="0 0 20.823 20.823"><defs><style>.a,.b{fill:#a9aaad;}.b{fill-rule:evenodd;}</style></defs><path class="a" d="M162.221,0V3.481H161V0Z" transform="translate(-151.169)"/><path class="a" d="M247.3,43.855,244.855,46.3,244,45.443,246.443,43Z" transform="translate(-229.1 -40.374)"/><path class="a" d="M287.481,162.221H284V161h3.481Z" transform="translate(-266.658 -151.169)"/><path class="a" d="M246.443,247.3,244,244.855l.855-.855,2.443,2.443Z" transform="translate(-229.1 -229.1)"/><path class="a" d="M161,287.481V284h1.221v3.481Z" transform="translate(-151.169 -266.658)"/><path class="a" d="M43,246.443,45.443,244l.855.855L43.855,247.3Z" transform="translate(-40.374 -229.1)"/><path class="a" d="M0,161H3.481v1.221H0Z" transform="translate(0 -151.169)"/><path class="a" d="M43.855,43,46.3,45.443l-.855.855L43,43.855Z" transform="translate(-40.374 -40.374)"/><path class="b" d="M107.152,103A4.122,4.122,0,1,1,103,107.152,4.105,4.105,0,0,1,107.152,103Z" transform="translate(-96.71 -96.71)"/></svg>