<svg xmlns="http://www.w3.org/2000/svg" width="28.623" height="33" viewBox="0 0 28.623 33"><defs><style>.a{fill:#ff056e;}</style></defs><g transform="translate(0 0)"><path class="a" d="M35.991,47.937a.971.971,0,0,1-.973.973.994.994,0,0,1-.973-.973V29.7H30.676V47.937a.971.971,0,0,1-.973.973.994.994,0,0,1-.973-.973V29.7H25.4V47.937a.971.971,0,0,1-.973.973.994.994,0,0,1-.973-.973V29.7H18.9V49.014a4.255,4.255,0,0,0,4.238,4.238H36.268a4.255,4.255,0,0,0,4.238-4.238V29.7H35.991Z" transform="translate(-15.392 -20.252)"/><path class="a" d="M35.964,7.155H28.982v-3.2A1.468,1.468,0,0,0,27.523,2.5H18.7a1.468,1.468,0,0,0-1.459,1.459v3.2H10.259a1.459,1.459,0,0,0,0,2.918H35.964a1.468,1.468,0,0,0,1.459-1.459A1.446,1.446,0,0,0,35.964,7.155Zm-15.805-1.7h5.871V7.189H20.159Z" transform="translate(-8.8 -2.5)"/></g></svg>