<svg xmlns="http://www.w3.org/2000/svg" width="18.393" height="21.75" viewBox="0 0 18.393 21.75"><defs><style>.a{fill:#a9aaad;}</style></defs><path class="a" d="M25.094,21.256h0c-.932-4.461,1.2-4.611,1.2-4.611a2.975,2.975,0,0,1,1.167-1.084,3.932,3.932,0,0,1,2.4-.506,3.477,3.477,0,0,1,.954.182h0a4.208,4.208,0,0,1,1.05.538,5.614,5.614,0,0,1,1.081.893,4.354,4.354,0,0,1,1.168,2.048,3.823,3.823,0,0,1-.1,2.285c.383-.036.834.186.409,1.689-.311,1.1-.6,1.407-.819,1.424a4.088,4.088,0,0,1-3.849,3.839c-2.7-.105-3.532-2.108-3.808-3.662-.223.152-.595.072-1-1.37C24.606,21.748,24.808,21.355,25.094,21.256ZM38.81,32.688c.069-.981-.013-2.967-1.732-3.4A14.3,14.3,0,0,1,32.9,27.378l-1.736,5.491-.238.745-.778-2.2c1.949-2.719-.516-2.613-.516-2.613s-2.465-.106-.516,2.614l-.77,2.187-.24-.737,0,.012L27.823,32h0l-1.462-4.623a14.3,14.3,0,0,1-4.179,1.905c-1.719.437-1.8,2.421-1.732,3.4a7.337,7.337,0,0,0,.2,1.918,17.6,17.6,0,0,0,8.981,2.182l.011-.127,0,.127A17.6,17.6,0,0,0,38.618,34.6a7.351,7.351,0,0,0,.2-1.918Z" transform="translate(-20.433 -15.037)"/></svg>